<svg id="crystal-icon" xmlns="http://www.w3.org/2000/svg" xmlns:xlink="http://www.w3.org/1999/xlink" width="250" height="250" viewBox="0 0 250 250">
  <defs>
    <clipPath id="clip-path">
      <rect id="Rectangle_52" data-name="Rectangle 52" width="250" height="250" fill="none"/>
    </clipPath>
  </defs>
  <g id="Group_59" data-name="Group 59">
    <g id="Group_58" data-name="Group 58" clip-path="url(#clip-path)">
      <path id="Path_9" data-name="Path 9" d="M125,0A125,125,0,1,0,250,125,125,125,0,0,0,125,0m-.5,244.5a119,119,0,1,1,119-119,119,119,0,0,1-119,119" fill="#a34652"/>
      <path id="Path_10" data-name="Path 10" d="M124.5,9.746a115,115,0,1,0,115,115,115,115,0,0,0-115-115M124.5,237A112.5,112.5,0,1,1,237,124.5,112.5,112.5,0,0,1,124.5,237" fill="#a34652"/>
    </g>
  </g>
  <g id="Group_61" data-name="Group 61">
    <g id="Group_60" data-name="Group 60" clip-path="url(#clip-path)">
      <path id="Path_11" data-name="Path 11" d="M124.393,12.182l-42.5,77.9a.431.431,0,0,0-.036.328l42.021,146.42a.433.433,0,0,0,.831.007L169.6,90.421a.435.435,0,0,0-.038-.342l-44.409-77.9A.434.434,0,0,0,124.393,12.182Z" fill="none" stroke="#a34652" stroke-miterlimit="10" stroke-width="1"/>
      <path id="Path_12" data-name="Path 12" d="M227.623,78.295,169.9,90.189a.434.434,0,0,0-.327.3L124.8,236.552a.434.434,0,0,0,.723.432l99.041-100.145a.431.431,0,0,0,.123-.269l4.657-56.752A1.435,1.435,0,0,0,227.623,78.295Z" fill="none" stroke="#a34652" stroke-miterlimit="10" stroke-width="1"/>
      <path id="Path_13" data-name="Path 13" d="M20.06,78.45,81.548,90.191a.434.434,0,0,1,.335.306l42.361,146.539a.433.433,0,0,1-.724.425L24.437,137.274a.44.44,0,0,1-.124-.269L19.547,78.911A.433.433,0,0,1,20.06,78.45Z" fill="none" stroke="#a34652" stroke-miterlimit="10" stroke-width="1"/>
      <line id="Line_6" data-name="Line 6" x1="104.282" y2="160.673" transform="translate(124.718 78)" fill="none" stroke="#a34652" stroke-miterlimit="10" stroke-width="1"/>
      <path id="Path_14" data-name="Path 14" d="M82.292,90.716l-18.637,54.6a.433.433,0,0,1-.5.284l-38.779-8.4" fill="none" stroke="#a34652" stroke-miterlimit="10" stroke-width="1"/>
      <path id="Path_15" data-name="Path 15" d="M124.765,11.5l-.088,226.542a.433.433,0,0,1-.8.236L19.894,78.736" fill="none" stroke="#a34652" stroke-miterlimit="10" stroke-width="1"/>
      <path id="Path_16" data-name="Path 16" d="M81.809,90.242l42.851,10.883a.435.435,0,0,0,.209,0L169.25,90.339a.435.435,0,0,1,.519.3l15.981,53.838a.434.434,0,0,0,.505.3l38.418-8.048" fill="none" stroke="#a34652" stroke-miterlimit="10" stroke-width="1"/>
    </g>
  </g>
</svg>
