<?xml version="1.0" encoding="UTF-8"?>
<svg id="Layer_1" data-name="Layer 1" xmlns="http://www.w3.org/2000/svg" viewBox="0 0 438.69 220.06">
  <defs>
    <style>
      .cls-1 {
        fill-rule: evenodd;
      }

      .cls-1, .cls-2 {
        fill: #e22c24;
      }

      .cls-1, .cls-2, .cls-3 {
        stroke-width: 0px;
      }

      .cls-3 {
        fill: #000100;
      }
    </style>
  </defs>
  <g id="georgian_bay" data-name="georgian bay">
    <path class="cls-3" d="m24.01,24.45c-1.47.6-4.26,1.42-7.05,1.42-3.86,0-6.65-1.16-8.59-3.36-1.91-2.21-2.98-5.5-2.98-9.2C5.42,4.93,10.53.15,17.45.15c2.73,0,4.83.64,5.86,1.2l-1,4.6c-1.16-.64-2.57-1.09-4.89-1.09-3.98,0-7.02,2.69-7.02,8.15s2.76,8.26,6.68,8.26c1.06,0,1.94-.15,2.32-.34v-5.31h-3.26v-4.45h7.87v13.27Z"/>
    <polygon class="cls-3" points="39.81 14.95 32.03 14.95 32.03 20.93 40.72 20.93 40.72 25.61 27.27 25.61 27.27 .41 40.28 .41 40.28 5.08 32.03 5.08 32.03 10.32 39.81 10.32 39.81 14.95"/>
    <path class="cls-3" d="m52.44,26.02c-6.24,0-9.94-5.64-9.94-12.82,0-7.55,4.07-13.2,10.28-13.2s10.03,5.8,10.03,12.75c0,8.3-4.17,13.27-10.35,13.27h-.03Zm.22-4.52c3.23,0,5.08-3.63,5.08-8.56,0-4.52-1.79-8.41-5.08-8.41s-5.14,3.81-5.14,8.52,1.91,8.45,5.11,8.45h.03Z"/>
    <path class="cls-3" d="m64.98.79c1.54-.34,3.79-.56,6.36-.56,3.13,0,5.33.56,6.83,2.02,1.28,1.2,1.98,2.95,1.98,5.27,0,3.18-1.91,5.38-3.73,6.17v.11c1.47.71,2.29,2.36,2.82,4.67.66,2.88,1.28,6.17,1.69,7.14h-4.89c-.31-.71-.85-2.77-1.44-5.87-.6-3.18-1.5-4-3.48-4.04h-1.41v9.91h-4.73V.79Zm4.73,10.8h1.88c2.38,0,3.79-1.42,3.79-3.63s-1.32-3.48-3.51-3.48c-1.16,0-1.82.07-2.16.19v6.91Z"/>
    <path class="cls-3" d="m100.59,24.45c-1.47.6-4.26,1.42-7.05,1.42-3.86,0-6.65-1.16-8.59-3.36-1.91-2.21-2.98-5.5-2.98-9.2.03-8.37,5.14-13.16,12.07-13.16,2.73,0,4.83.64,5.86,1.2l-1,4.6c-1.16-.64-2.57-1.09-4.89-1.09-3.98,0-7.02,2.69-7.02,8.15s2.76,8.26,6.68,8.26c1.07,0,1.94-.15,2.32-.34v-5.31h-3.26v-4.45h7.87v13.27Z"/>
    <rect class="cls-3" x="103.85" y=".41" width="4.76" height="25.19"/>
    <path class="cls-3" d="m117.15,19.14l-1.47,6.47h-4.95L117.18.41h6.24l6.58,25.19h-5.14l-1.63-6.47h-6.08Zm5.36-4.26l-1.32-5.34c-.34-1.5-.72-3.4-1.03-4.86h-.09c-.28,1.5-.63,3.4-.94,4.86l-1.28,5.34h4.67Z"/>
    <path class="cls-3" d="m132.32,25.61V.41h5.58l4.39,9.23c1.25,2.65,2.48,5.8,3.45,8.63h.06c-.28-3.33-.38-6.73-.38-10.54V.41h4.39v25.19h-5.02l-4.51-9.72c-1.25-2.73-2.67-5.94-3.67-8.9h-.13c.16,3.37.22,6.92.22,11.03v7.59h-4.39Z"/>
    <path class="cls-3" d="m159.28.79c1.25-.3,3.76-.56,6.18-.56,2.92,0,4.7.34,6.27,1.42,1.47.94,2.51,2.66,2.51,4.97s-1.1,4.26-3.48,5.35v.08c2.41.75,4.2,2.95,4.2,6.17,0,2.32-.88,4.11-2.19,5.38-1.54,1.46-4.11,2.28-8.31,2.28-2.35,0-4.11-.19-5.17-.37V.79Zm4.73,9.61h1.57c2.54,0,3.86-1.23,3.86-3.1s-1.22-2.92-3.38-2.92c-1.07,0-1.66.07-2.04.19v5.83Zm0,11.14c.47.11,1.04.11,1.85.11,2.16,0,4.08-1.01,4.08-3.66,0-2.5-1.91-3.51-4.3-3.51h-1.63v7.07Z"/>
    <path class="cls-3" d="m182.51,19.14l-1.47,6.47h-4.95L182.54.41h6.24l6.58,25.19h-5.14l-1.63-6.47h-6.08Zm5.36-4.26l-1.32-5.34c-.34-1.5-.72-3.4-1.03-4.86h-.1c-.28,1.5-.63,3.4-.94,4.86l-1.28,5.34h4.67Z"/>
    <path class="cls-3" d="m199.5,25.61v-10.32l-6.68-14.88h5.49l2.13,6.05c.66,1.83,1.13,3.18,1.63,4.82h.06c.47-1.57.97-3.03,1.6-4.82l2.13-6.05h5.36l-6.96,14.69v10.5h-4.77Z"/>
  </g>
  <g id="electric_ltd" data-name="electric ltd">
    <path class="cls-3" d="m116.28,176.08v27.8h13.91c1.11,0,1.96.3,2.55.91.59.61.89,1.38.89,2.29s-.29,1.7-.88,2.28c-.58.58-1.44.88-2.56.88h-16.56c-1.49,0-2.56-.37-3.21-1.12-.65-.75-.98-1.95-.98-3.62v-29.42c0-1.56.31-2.74.93-3.52.62-.78,1.44-1.17,2.45-1.17s1.86.39,2.5,1.16c.64.77.96,1.95.96,3.53Z"/>
    <path class="cls-3" d="m162.05,177.97h-15.46v9.45h14.23c1.05,0,1.83.27,2.35.79.52.53.78,1.23.78,2.1s-.26,1.58-.76,2.12c-.51.55-1.29.82-2.36.82h-14.23v10.83h15.99c1.08,0,1.89.28,2.44.85.55.56.82,1.32.82,2.26s-.27,1.64-.82,2.21c-.55.56-1.36.85-2.44.85h-18.63c-1.49,0-2.56-.37-3.21-1.12-.65-.75-.98-1.95-.98-3.62v-28.73c0-1.11.14-2.02.44-2.72.29-.71.75-1.22,1.37-1.54.62-.32,1.42-.48,2.38-.48h18.1c1.09,0,1.91.27,2.44.82.53.55.8,1.26.8,2.14s-.27,1.62-.8,2.17c-.53.55-1.34.82-2.44.82Z"/>
    <path class="cls-3" d="m201.77,198.16c0,1.22-.27,2.53-.8,3.95-.53,1.41-1.37,2.8-2.51,4.17-1.14,1.36-2.6,2.47-4.37,3.32-1.77.85-3.84,1.28-6.19,1.28-1.79,0-3.41-.19-4.88-.58-1.46-.38-2.79-.97-3.98-1.78-1.19-.81-2.29-1.88-3.28-3.2-.89-1.2-1.65-2.54-2.28-4.02-.63-1.48-1.1-3.07-1.41-4.75-.32-1.68-.47-3.47-.47-5.37,0-3.07.39-5.82,1.19-8.26.79-2.43,1.92-4.51,3.39-6.24,1.47-1.73,3.2-3.04,5.19-3.95,1.99-.9,4.1-1.36,6.35-1.36,2.74,0,5.18.62,7.33,1.86,2.14,1.23,3.78,2.76,4.92,4.57,1.14,1.82,1.71,3.53,1.71,5.15,0,.89-.28,1.67-.83,2.34-.56.68-1.23,1.02-2.01,1.02-.88,0-1.54-.23-1.98-.7-.44-.47-.93-1.27-1.47-2.42-.9-1.89-1.95-3.3-3.15-4.24-1.21-.94-2.7-1.41-4.47-1.41-2.82,0-5.06,1.21-6.74,3.62-1.67,2.41-2.51,5.84-2.51,10.28,0,2.97.37,5.44,1.11,7.41.74,1.97,1.79,3.44,3.14,4.41,1.35.97,2.94,1.46,4.76,1.46,1.97,0,3.64-.55,5-1.65,1.36-1.1,2.39-2.72,3.09-4.86.29-1,.65-1.82,1.08-2.46.43-.63,1.12-.95,2.08-.95.82,0,1.52.32,2.1.96.59.64.88,1.44.88,2.39Z"/>
    <path class="cls-3" d="m231.5,178.39h-7.49v27.77c0,1.6-.31,2.79-.93,3.56-.62.77-1.43,1.16-2.42,1.16s-1.82-.39-2.45-1.17c-.63-.78-.95-1.96-.95-3.54v-27.77h-7.48c-1.17,0-2.04-.29-2.61-.87-.57-.58-.85-1.35-.85-2.3s.29-1.77.89-2.34c.59-.57,1.45-.86,2.58-.86h21.72c1.19,0,2.07.29,2.64.88.58.59.87,1.36.87,2.31s-.29,1.72-.88,2.3c-.58.58-1.46.87-2.63.87Z"/>
    <path class="cls-3" d="m250.07,193.89h-2.4v12.27c0,1.62-.32,2.81-.94,3.57-.63.77-1.45,1.15-2.46,1.15-1.09,0-1.94-.4-2.53-1.2-.6-.8-.9-1.97-.9-3.52v-29.4c0-1.67.33-2.88.99-3.62.66-.75,1.73-1.12,3.21-1.12h11.14c1.54,0,2.85.07,3.94.22,1.09.15,2.08.45,2.95.9,1.06.5,2,1.22,2.81,2.17.81.94,1.43,2.03,1.85,3.27.42,1.24.63,2.56.63,3.95,0,2.85-.71,5.13-2.13,6.83-1.42,1.7-3.57,2.91-6.46,3.62,1.21.73,2.37,1.81,3.48,3.23,1.11,1.42,2.09,2.94,2.96,4.54.87,1.61,1.54,3.05,2.03,4.35.48,1.29.72,2.19.72,2.67s-.14,1-.43,1.5c-.28.49-.67.88-1.16,1.17-.49.29-1.06.43-1.7.43-.77,0-1.41-.21-1.94-.61-.52-.41-.97-.92-1.35-1.55-.38-.62-.89-1.55-1.53-2.76l-2.74-5.16c-.99-1.89-1.87-3.33-2.64-4.33-.78-.99-1.57-1.67-2.37-2.03-.8-.37-1.81-.55-3.03-.55Zm3.93-16.03h-6.33v10.51h6.14c1.65,0,3.03-.16,4.16-.48,1.12-.32,1.98-.87,2.57-1.64.6-.77.89-1.84.89-3.2,0-1.06-.24-1.99-.72-2.8-.48-.81-1.14-1.41-1.99-1.81-.8-.38-2.38-.57-4.73-.57Z"/>
    <path class="cls-3" d="m276.78,206.16v-30.09c0-1.56.31-2.73.94-3.52.63-.78,1.44-1.17,2.44-1.17s1.86.39,2.5,1.16c.64.77.96,1.95.96,3.53v30.09c0,1.58-.32,2.76-.96,3.54-.64.78-1.47,1.17-2.5,1.17s-1.79-.4-2.43-1.18c-.64-.79-.95-1.97-.95-3.53Z"/>
    <path class="cls-3" d="m321.76,198.16c0,1.22-.27,2.53-.8,3.95-.53,1.41-1.37,2.8-2.51,4.17-1.14,1.36-2.6,2.47-4.37,3.32-1.77.85-3.83,1.28-6.19,1.28-1.79,0-3.41-.19-4.88-.58-1.46-.38-2.79-.97-3.98-1.78-1.19-.81-2.29-1.88-3.28-3.2-.89-1.2-1.65-2.54-2.28-4.02-.63-1.48-1.1-3.07-1.41-4.75-.32-1.68-.47-3.47-.47-5.37,0-3.07.4-5.82,1.18-8.26.79-2.43,1.92-4.51,3.39-6.24,1.47-1.73,3.2-3.04,5.19-3.95,1.98-.9,4.1-1.36,6.35-1.36,2.74,0,5.18.62,7.32,1.86,2.14,1.23,3.78,2.76,4.92,4.57,1.14,1.82,1.71,3.53,1.71,5.15,0,.89-.28,1.67-.83,2.34-.55.68-1.23,1.02-2.01,1.02-.88,0-1.54-.23-1.98-.7-.44-.47-.93-1.27-1.47-2.42-.89-1.89-1.94-3.3-3.15-4.24s-2.7-1.41-4.47-1.41c-2.82,0-5.06,1.21-6.74,3.62-1.67,2.41-2.5,5.84-2.5,10.28,0,2.97.37,5.44,1.11,7.41.74,1.97,1.79,3.44,3.14,4.41,1.35.97,2.94,1.46,4.76,1.46,1.97,0,3.63-.55,5-1.65,1.36-1.1,2.39-2.72,3.08-4.86.29-1,.65-1.82,1.09-2.46.43-.63,1.13-.95,2.08-.95.82,0,1.52.32,2.1.96.58.64.88,1.44.88,2.39Z"/>
    <path class="cls-3" d="m349.81,176.08v27.8h13.91c1.11,0,1.96.3,2.55.91.59.61.89,1.38.89,2.29s-.29,1.7-.88,2.28c-.58.58-1.44.88-2.56.88h-16.56c-1.49,0-2.56-.37-3.21-1.12-.65-.75-.98-1.95-.98-3.62v-29.42c0-1.56.31-2.74.93-3.52.62-.78,1.44-1.17,2.45-1.17s1.86.39,2.5,1.16c.63.77.95,1.95.95,3.53Z"/>
    <path class="cls-3" d="m389.24,178.39h-7.49v27.77c0,1.6-.31,2.79-.93,3.56-.63.77-1.43,1.16-2.42,1.16s-1.82-.39-2.45-1.17c-.63-.78-.95-1.96-.95-3.54v-27.77h-7.49c-1.17,0-2.04-.29-2.61-.87-.57-.58-.86-1.35-.86-2.3s.3-1.77.89-2.34c.59-.57,1.45-.86,2.58-.86h21.72c1.18,0,2.06.29,2.64.88.58.59.87,1.36.87,2.31s-.29,1.72-.88,2.3c-.58.58-1.46.87-2.63.87Z"/>
    <path class="cls-3" d="m402.85,172.03h8.92c2.32,0,4.31.24,5.97.73,1.66.49,3.17,1.41,4.52,2.75,3.51,3.4,5.27,8.58,5.27,15.53,0,2.29-.17,4.39-.53,6.28-.35,1.89-.9,3.6-1.63,5.12-.74,1.52-1.68,2.88-2.83,4.08-.91.92-1.9,1.66-2.97,2.22-1.08.56-2.23.95-3.47,1.17-1.24.23-2.63.34-4.18.34h-8.92c-1.24,0-2.18-.21-2.81-.64-.63-.42-1.04-1.03-1.23-1.8-.19-.77-.29-1.78-.29-3.01v-28.03c0-1.67.33-2.87.99-3.62.66-.75,1.73-1.12,3.2-1.12Zm2.65,6.16v25.9h5.19c1.14,0,2.03-.04,2.67-.1.65-.07,1.32-.24,2.01-.52.69-.28,1.29-.67,1.8-1.17,2.29-2.19,3.44-5.95,3.44-11.3,0-3.77-.51-6.59-1.51-8.46-1.01-1.87-2.25-3.07-3.73-3.58-1.48-.51-3.26-.77-5.35-.77h-4.52Z"/>
    <path class="cls-3" d="m435.27,210.88c-.95,0-1.77-.35-2.46-1.04-.69-.7-1.04-1.67-1.04-2.93,0-1.06.33-1.97.99-2.74.66-.77,1.47-1.15,2.44-1.15s1.79.38,2.47,1.14c.68.76,1.02,1.67,1.02,2.75,0,1.24-.34,2.21-1.02,2.91-.68.7-1.48,1.06-2.4,1.06Z"/>
    <path class="cls-3" d="m78.81,209.68h16.97c2.41,0,4.37-2.08,4.37-4.66s-1.96-4.65-4.37-4.65h-16.97v9.31"/>
    <path class="cls-3" d="m96.15,174.97c2.41,0,4.37,2.09,4.37,4.66s-1.96,4.66-4.37,4.66h-17.34v-9.31h17.34Z"/>
    <path class="cls-3" d="m88.2,196.98c1.46,0,2.64-2.08,2.64-4.65s-1.18-4.66-2.64-4.66h-9.39v9.32h9.39Z"/>
  </g>
  <g id="kingston">
    <polygon class="cls-1" points="52.7 104.34 55.51 104.34 64.94 62.57 84.05 62.57 72.96 107.43 83.92 159.95 63.66 159.95 56.4 119.79 52.7 119.79 52.7 159.95 33.84 159.95 33.84 62.57 52.7 62.57 52.7 104.34"/>
    <rect class="cls-2" x="89.15" y="62.57" width="18.48" height="97.38"/>
    <polygon class="cls-1" points="115.27 62.57 132.86 62.57 142.29 101.66 142.29 62.57 161.28 62.57 161.28 159.95 142.29 159.95 132.35 119.25 132.35 159.95 115.27 159.95 115.27 62.57"/>
    <path class="cls-1" d="m228.01,159.57l-3.69-18.13h22.11c1.61,0,2.41-.67,2.41-2.01v-17.73c0-1.34-.28-2.15-.85-2.42-.57-.27-1.56-.4-2.98-.4h-10.63c-1.51,0-2.96-.11-4.32-.34-1.37-.22-2.6-.73-3.69-1.54-1.09-.81-1.94-1.93-2.56-3.36-.62-1.43-.92-3.36-.92-5.77v-33.04c0-3.85,1.11-6.91,3.33-9.2,2.22-2.28,5.74-3.43,10.56-3.43h28.35l3.54,18.14h-23.25c-1.7,0-2.55.71-2.55,2.15v17.73c0,.99.26,1.66.78,2.02.51.36,1.3.54,2.34.54h12.9c3.31,0,5.83.74,7.59,2.22,1.75,1.48,2.62,4.05,2.62,7.72v32.1c0,5.38-1.16,9.18-3.47,11.42-2.31,2.24-6.4,3.36-12.26,3.36h-25.37Z"/>
    <polygon class="cls-1" points="316.76 62.18 321.86 80.32 308.11 80.32 308.11 159.57 287.13 159.57 287.13 80.32 273.38 80.32 278.77 62.18 316.76 62.18"/>
    <path class="cls-1" d="m349.05,80.26c-1.23,0-1.84.62-1.84,1.88v59.37c0,.72.11,1.23.36,1.55.23.31.78.47,1.63.47h7.8c.85,0,1.39-.16,1.63-.47.24-.31.35-.83.35-1.55v-59.37c0-1.25-.62-1.88-1.85-1.88h-8.08Zm30.76,66.49c0,1.88-.23,3.65-.7,5.31-.48,1.65-1.28,3.11-2.42,4.36-1.13,1.26-2.65,2.27-4.54,3.02-1.9.77-4.25,1.14-7.09,1.14h-23.82c-2.83,0-5.19-.38-7.08-1.14-1.89-.75-3.41-1.77-4.54-3.02-1.14-1.25-1.94-2.71-2.41-4.36-.48-1.66-.71-3.42-.71-5.31v-70.92c0-3.85,1.11-6.92,3.33-9.2,2.23-2.28,5.74-3.42,10.56-3.42h25.52c4.82,0,8.34,1.14,10.56,3.42,2.23,2.28,3.33,5.35,3.33,9.2v70.92Z"/>
    <polygon class="cls-1" points="387.51 62.18 407.08 62.18 417.57 101.27 417.57 62.18 438.69 62.18 438.69 159.57 417.57 159.57 406.5 118.87 406.5 159.57 387.51 159.57 387.51 62.18"/>
    <path id="g" class="cls-2" d="m0,36.34l215.55-.03v35.53h-.05v9.16l-30.98-.09h0c-.5.23-.75.81-.75,1.77v57.76c0,1.25.43,1.88,1.28,1.88l16.57.02v-23.46h-8.25v-15.94h22.68v.96h.01v56.15h-35.52c-4.12,0-7-1.16-8.64-3.49-1.64-2.33-2.45-6.18-2.45-11.55v-70.51c0-3.59.7-6.45,2.11-8.6,1.41-2.15,3.52-3.22,6.33-3.22h.81-.62l29.46-.05v-19.16H6.7v145.67h26.11v-7.66c0-4.63,2.78-8.38,6.2-8.38h23.05c.59-2.84,3.04-4.97,5.98-4.97,3.37,0,6.11,2.82,6.11,6.28v35.87c0,3.47-2.74,6.28-6.11,6.28s-6.07-2.77-6.11-6.21h-22.92c-3.42,0-6.2-3.75-6.2-8.38v-5.68H0"/>
  </g>
  <rect class="cls-3" x="78.81" y="216.54" width="359.88" height="3.52"/>
</svg>